<?xml version="1.0" standalone="no"?>
 <!DOCTYPE svg PUBLIC "-//W3C//DTD SVG 1.1//EN" 
 "http://www.w3.org/Graphics/SVG/1.1/DTD/svg11.dtd"> 
<svg xmlns="http://www.w3.org/2000/svg" version="1.1" 
    width="29.7002cm" height="21.0007cm" viewBox="0 0 116930 82680 ">
<title>SVG Picture created as A7139-Breakout-F.SilkS.svg date 2018/08/09 19:49:00 </title>
  <desc>Picture generated by PCBNEW </desc>
<g style="fill:#000000; fill-opacity:1;stroke:#000000; stroke-opacity:1;
stroke-linecap:round; stroke-linejoin:round; "
 transform="translate(0 0) scale(1 1)">
</g>
<g style="fill:#000000; fill-opacity:0.0; 
stroke:#000000; stroke-width:-0.000393701; stroke-opacity:1; 
stroke-linecap:round; stroke-linejoin:round;">
</g>
<g style="fill:#000000; fill-opacity:0.0; 
stroke:#000000; stroke-width:98.4252; stroke-opacity:1; 
stroke-linecap:round; stroke-linejoin:round;">
<path d="M50659 48770
L50678 48714
L50678 48620
L50659 48583
L50640 48564
L50603 48545
L50565 48545
L50528 48564
L50509 48583
L50490 48620
L50471 48695
L50453 48732
L50434 48751
L50396 48770
L50359 48770
L50321 48751
L50303 48732
L50284 48695
L50284 48601
L50303 48545
" />
<path d="M50640 48151
L50659 48170
L50678 48226
L50678 48264
L50659 48320
L50621 48358
L50584 48376
L50509 48395
L50453 48395
L50378 48376
L50340 48358
L50303 48320
L50284 48264
L50284 48226
L50303 48170
L50321 48151
" />
<path d="M50659 48001
L50678 47945
L50678 47851
L50659 47814
L50640 47795
L50603 47776
L50565 47776
L50528 47795
L50509 47814
L50490 47851
L50471 47926
L50453 47964
L50434 47983
L50396 48001
L50359 48001
L50321 47983
L50303 47964
L50284 47926
L50284 47833
L50303 47776
" />
<path d="M51659 48770
L51678 48714
L51678 48620
L51659 48583
L51640 48564
L51603 48545
L51565 48545
L51528 48564
L51509 48583
L51490 48620
L51471 48695
L51453 48732
L51434 48751
L51396 48770
L51359 48770
L51321 48751
L51303 48732
L51284 48695
L51284 48601
L51303 48545
" />
<path d="M51640 48151
L51659 48170
L51678 48226
L51678 48264
L51659 48320
L51621 48358
L51584 48376
L51509 48395
L51453 48395
L51378 48376
L51340 48358
L51303 48320
L51284 48264
L51284 48226
L51303 48170
L51321 48151
" />
<path d="M51678 47983
L51284 47983
" />
<path d="M51678 47758
L51453 47926
" />
<path d="M51284 47758
L51509 47983
" />
<path d="M52659 48770
L52678 48714
L52678 48620
L52659 48583
L52640 48564
L52603 48545
L52565 48545
L52528 48564
L52509 48583
L52490 48620
L52471 48695
L52453 48732
L52434 48751
L52396 48770
L52359 48770
L52321 48751
L52303 48732
L52284 48695
L52284 48601
L52303 48545
" />
<path d="M52678 48376
L52284 48376
L52284 48283
L52303 48226
L52340 48189
L52378 48170
L52453 48151
L52509 48151
L52584 48170
L52621 48189
L52659 48226
L52678 48283
L52678 48376
" />
<path d="M52678 47983
L52284 47983
" />
<path d="M52284 47720
L52284 47645
L52303 47608
L52340 47570
L52415 47551
L52546 47551
L52621 47570
L52659 47608
L52678 47645
L52678 47720
L52659 47758
L52621 47795
L52546 47814
L52415 47814
L52340 47795
L52303 47758
L52284 47720
" />
<path d="M53303 48545
L53284 48583
L53284 48639
L53303 48695
L53340 48732
L53378 48751
L53453 48770
L53509 48770
L53584 48751
L53621 48732
L53659 48695
L53678 48639
L53678 48601
L53659 48545
L53640 48526
L53509 48526
L53509 48601
" />
<path d="M53678 48358
L53284 48358
" />
<path d="M53284 48095
L53284 48020
L53303 47983
L53340 47945
L53415 47926
L53546 47926
L53621 47945
L53659 47983
L53678 48020
L53678 48095
L53659 48133
L53621 48170
L53546 48189
L53415 48189
L53340 48170
L53303 48133
L53284 48095
" />
<path d="M53678 47551
L53678 47776
" />
<path d="M53678 47664
L53284 47664
L53340 47701
L53378 47739
L53396 47776
" />
<path d="M54303 48545
L54284 48583
L54284 48639
L54303 48695
L54340 48732
L54378 48751
L54453 48770
L54509 48770
L54584 48751
L54621 48732
L54659 48695
L54678 48639
L54678 48601
L54659 48545
L54640 48526
L54509 48526
L54509 48601
" />
<path d="M54678 48358
L54284 48358
" />
<path d="M54284 48095
L54284 48020
L54303 47983
L54340 47945
L54415 47926
L54546 47926
L54621 47945
L54659 47983
L54678 48020
L54678 48095
L54659 48133
L54621 48170
L54546 48189
L54415 48189
L54340 48170
L54303 48133
L54284 48095
" />
<path d="M54321 47776
L54303 47758
L54284 47720
L54284 47626
L54303 47589
L54321 47570
L54359 47551
L54396 47551
L54453 47570
L54678 47795
L54678 47551
" />
<path d="M55284 48729
L55678 48598
L55284 48466
" />
<path d="M55640 48110
L55659 48129
L55678 48185
L55678 48223
L55659 48279
L55621 48316
L55584 48335
L55509 48354
L55453 48354
L55378 48335
L55340 48316
L55303 48279
L55284 48223
L55284 48185
L55303 48129
L55321 48110
" />
<path d="M55640 47716
L55659 47735
L55678 47791
L55678 47829
L55659 47885
L55621 47923
L55584 47941
L55509 47960
L55453 47960
L55378 47941
L55340 47923
L55303 47885
L55284 47829
L55284 47791
L55303 47735
L55321 47716
" />
<path d="M56303 48545
L56284 48583
L56284 48639
L56303 48695
L56340 48732
L56378 48751
L56453 48770
L56509 48770
L56584 48751
L56621 48732
L56659 48695
L56678 48639
L56678 48601
L56659 48545
L56640 48526
L56509 48526
L56509 48601
" />
<path d="M56678 48358
L56284 48358
L56678 48133
L56284 48133
" />
<path d="M56678 47945
L56284 47945
L56284 47851
L56303 47795
L56340 47758
L56378 47739
L56453 47720
L56509 47720
L56584 47739
L56621 47758
L56659 47795
L56678 47851
L56678 47945
" />
</g> 
</svg>
