<?xml version="1.0" standalone="no"?>
 <!DOCTYPE svg PUBLIC "-//W3C//DTD SVG 1.1//EN" 
 "http://www.w3.org/Graphics/SVG/1.1/DTD/svg11.dtd"> 
<svg xmlns="http://www.w3.org/2000/svg" version="1.1" 
    width="29.7002cm" height="21.0007cm" viewBox="0 0 116930 82680 ">
<title>SVG Picture created as A7139-Breakout-F.Mask.svg date 2018/08/09 19:49:00 </title>
  <desc>Picture generated by PCBNEW </desc>
<g style="fill:#000000; fill-opacity:1;stroke:#000000; stroke-opacity:1;
stroke-linecap:round; stroke-linejoin:round; "
 transform="translate(0 0) scale(1 1)">
</g>
<g style="fill:#000000; fill-opacity:0.0; 
stroke:#000000; stroke-width:-0.000393701; stroke-opacity:1; 
stroke-linecap:round; stroke-linejoin:round;">
</g>
<g style="fill:#000000; fill-opacity:0.0; 
stroke:#000000; stroke-width:0; stroke-opacity:1; 
stroke-linecap:round; stroke-linejoin:round;">
</g>
<g style="fill:#000000; fill-opacity:1.0; 
stroke:#000000; stroke-width:0; stroke-opacity:1; 
stroke-linecap:round; stroke-linejoin:round;">
<polyline style="fill-rule:evenodd;"
points="56145,49854
56145,49145
56854,49145
56854,49854
56145,49854
" /> 
</g>
<g style="fill:#000000; fill-opacity:1.0; 
stroke:#000000; stroke-width:709.291; stroke-opacity:1; 
stroke-linecap:round; stroke-linejoin:round;">
</g>
<g style="fill:#000000; fill-opacity:0.0; 
stroke:#000000; stroke-width:709.291; stroke-opacity:1; 
stroke-linecap:round; stroke-linejoin:round;">
<path d="M55500 49500
L55500 49500
" />
<path d="M54500 49500
L54500 49500
" />
<path d="M53500 49500
L53500 49500
" />
<path d="M52500 49500
L52500 49500
" />
<path d="M51500 49500
L51500 49500
" />
<path d="M50500 49500
L50500 49500
" />
</g>
<g style="fill:#000000; fill-opacity:0.0; 
stroke:#000000; stroke-width:0; stroke-opacity:1; 
stroke-linecap:round; stroke-linejoin:round;">
</g>
<g style="fill:#000000; fill-opacity:1.0; 
stroke:#000000; stroke-width:0; stroke-opacity:1; 
stroke-linecap:round; stroke-linejoin:round;">
<polyline style="fill-rule:evenodd;"
points="52755,47342
52755,46515
53071,46515
53071,47342
52755,47342
" /> 
<polyline style="fill-rule:evenodd;"
points="53255,47342
53255,46515
53571,46515
53571,47342
53255,47342
" /> 
<polyline style="fill-rule:evenodd;"
points="53755,47342
53755,46515
54071,46515
54071,47342
53755,47342
" /> 
<polyline style="fill-rule:evenodd;"
points="54255,47342
54255,46515
54571,46515
54571,47342
54255,47342
" /> 
<polyline style="fill-rule:evenodd;"
points="54755,47342
54755,46515
55071,46515
55071,47342
54755,47342
" /> 
<polyline style="fill-rule:evenodd;"
points="55255,47342
55255,46515
55571,46515
55571,47342
55255,47342
" /> 
<polyline style="fill-rule:evenodd;"
points="55755,47342
55755,46515
56071,46515
56071,47342
55755,47342
" /> 
</g> 
</svg>
