<?xml version="1.0" standalone="no"?>
 <!DOCTYPE svg PUBLIC "-//W3C//DTD SVG 1.1//EN" 
 "http://www.w3.org/Graphics/SVG/1.1/DTD/svg11.dtd"> 
<svg xmlns="http://www.w3.org/2000/svg" version="1.1" 
    width="29.7002cm" height="21.0007cm" viewBox="0 0 116930 82680 ">
<title>SVG Picture created as A7139-Breakout-B.SilkS.svg date 2018/08/09 19:49:00 </title>
  <desc>Picture generated by PCBNEW </desc>
<g style="fill:#000000; fill-opacity:1;stroke:#000000; stroke-opacity:1;
stroke-linecap:round; stroke-linejoin:round; "
 transform="translate(0 0) scale(1 1)">
</g>
<g style="fill:#000000; fill-opacity:0.0; 
stroke:#000000; stroke-width:-0.000393701; stroke-opacity:1; 
stroke-linecap:round; stroke-linejoin:round;">
</g>
<g style="fill:#000000; fill-opacity:0.0; 
stroke:#000000; stroke-width:98.4252; stroke-opacity:1; 
stroke-linecap:round; stroke-linejoin:round;">
<path d="M54062 44715
L53968 44978
L53874 44715
" />
<path d="M53518 44978
L53743 44978
" />
<path d="M53631 44978
L53631 44584
L53668 44640
L53706 44678
L53743 44696
" />
<path d="M53350 44940
L53331 44959
L53350 44978
L53368 44959
L53350 44940
L53350 44978
" />
<path d="M53087 44584
L53050 44584
L53012 44603
L52993 44621
L52975 44659
L52956 44734
L52956 44828
L52975 44903
L52993 44940
L53012 44959
L53050 44978
L53087 44978
L53125 44959
L53143 44940
L53162 44903
L53181 44828
L53181 44734
L53162 44659
L53143 44621
L53125 44603
L53087 44584
" />
</g>
<g style="fill:#000000; fill-opacity:0.0; 
stroke:#000000; stroke-width:118.11; stroke-opacity:1; 
stroke-linecap:round; stroke-linejoin:round;">
<path d="M54765 42896
L54484 42896
" />
<path d="M54821 43065
L54624 42474
L54428 43065
" />
<path d="M54287 42474
L53893 42474
L54146 43065
" />
<path d="M53359 43065
L53696 43065
" />
<path d="M53528 43065
L53528 42474
L53584 42558
L53640 42615
L53696 42643
" />
<path d="M53162 42474
L52796 42474
L52993 42699
L52909 42699
L52853 42727
L52825 42755
L52796 42812
L52796 42952
L52825 43008
L52853 43037
L52909 43065
L53078 43065
L53134 43037
L53162 43008
" />
<path d="M52515 43065
L52403 43065
L52347 43037
L52318 43008
L52262 42924
L52234 42812
L52234 42587
L52262 42530
L52290 42502
L52347 42474
L52459 42474
L52515 42502
L52543 42530
L52571 42587
L52571 42727
L52543 42783
L52515 42812
L52459 42840
L52347 42840
L52290 42812
L52262 42783
L52234 42727
" />
<path d="M55102 43759
L55018 43787
L54990 43816
L54962 43872
L54962 43956
L54990 44012
L55018 44041
L55074 44069
L55299 44069
L55299 43478
L55102 43478
L55046 43506
L55018 43534
L54990 43591
L54990 43647
L55018 43703
L55046 43731
L55102 43759
L55299 43759
" />
<path d="M54709 44069
L54709 43675
" />
<path d="M54709 43787
L54681 43731
L54652 43703
L54596 43675
L54540 43675
" />
<path d="M54118 44041
L54174 44069
L54287 44069
L54343 44041
L54371 43984
L54371 43759
L54343 43703
L54287 43675
L54174 43675
L54118 43703
L54090 43759
L54090 43816
L54371 43872
" />
<path d="M53584 44069
L53584 43759
L53612 43703
L53668 43675
L53781 43675
L53837 43703
" />
<path d="M53584 44041
L53640 44069
L53781 44069
L53837 44041
L53865 43984
L53865 43928
L53837 43872
L53781 43844
L53640 43844
L53584 43816
" />
<path d="M53303 44069
L53303 43478
" />
<path d="M53246 43844
L53078 44069
" />
<path d="M53078 43675
L53303 43900
" />
<path d="M52740 44069
L52796 44041
L52825 44012
L52853 43956
L52853 43787
L52825 43731
L52796 43703
L52740 43675
L52656 43675
L52600 43703
L52571 43731
L52543 43787
L52543 43956
L52571 44012
L52600 44041
L52656 44069
L52740 44069
" />
<path d="M52037 43675
L52037 44069
" />
<path d="M52290 43675
L52290 43984
L52262 44041
L52206 44069
L52122 44069
L52065 44041
L52037 44012
" />
<path d="M51840 43675
L51615 43675
" />
<path d="M51756 43478
L51756 43984
L51728 44041
L51672 44069
L51615 44069
" />
</g>
<g style="fill:#000000; fill-opacity:0.0; 
stroke:#000000; stroke-width:98.4252; stroke-opacity:1; 
stroke-linecap:round; stroke-linejoin:round;">
<path d="M53303 47776
L53284 47739
L53284 47683
L53303 47626
L53340 47589
L53378 47570
L53453 47551
L53509 47551
L53584 47570
L53621 47589
L53659 47626
L53678 47683
L53678 47720
L53659 47776
L53640 47795
L53509 47795
L53509 47720
" />
<path d="M53678 47964
L53284 47964
" />
<path d="M53284 48226
L53284 48301
L53303 48339
L53340 48376
L53415 48395
L53546 48395
L53621 48376
L53659 48339
L53678 48301
L53678 48226
L53659 48189
L53621 48151
L53546 48133
L53415 48133
L53340 48151
L53303 48189
L53284 48226
" />
<path d="M53678 48770
L53678 48545
" />
<path d="M53678 48657
L53284 48657
L53340 48620
L53378 48583
L53396 48545
" />
<path d="M54303 47776
L54284 47739
L54284 47683
L54303 47626
L54340 47589
L54378 47570
L54453 47551
L54509 47551
L54584 47570
L54621 47589
L54659 47626
L54678 47683
L54678 47720
L54659 47776
L54640 47795
L54509 47795
L54509 47720
" />
<path d="M54678 47964
L54284 47964
" />
<path d="M54284 48226
L54284 48301
L54303 48339
L54340 48376
L54415 48395
L54546 48395
L54621 48376
L54659 48339
L54678 48301
L54678 48226
L54659 48189
L54621 48151
L54546 48133
L54415 48133
L54340 48151
L54303 48189
L54284 48226
" />
<path d="M54321 48545
L54303 48564
L54284 48601
L54284 48695
L54303 48732
L54321 48751
L54359 48770
L54396 48770
L54453 48751
L54678 48526
L54678 48770
" />
<path d="M56303 47945
L56284 47908
L56284 47851
L56303 47795
L56340 47758
L56378 47739
L56453 47720
L56509 47720
L56584 47739
L56621 47758
L56659 47795
L56678 47851
L56678 47889
L56659 47945
L56640 47964
L56509 47964
L56509 47889
" />
<path d="M56678 48133
L56284 48133
L56678 48358
L56284 48358
" />
<path d="M56678 48545
L56284 48545
L56284 48639
L56303 48695
L56340 48732
L56378 48751
L56453 48770
L56509 48770
L56584 48751
L56621 48732
L56659 48695
L56678 48639
L56678 48545
" />
<path d="M51659 47758
L51678 47814
L51678 47908
L51659 47945
L51640 47964
L51603 47983
L51565 47983
L51528 47964
L51509 47945
L51490 47908
L51471 47833
L51453 47795
L51434 47776
L51396 47758
L51359 47758
L51321 47776
L51303 47795
L51284 47833
L51284 47926
L51303 47983
" />
<path d="M51640 48376
L51659 48358
L51678 48301
L51678 48264
L51659 48208
L51621 48170
L51584 48151
L51509 48133
L51453 48133
L51378 48151
L51340 48170
L51303 48208
L51284 48264
L51284 48301
L51303 48358
L51321 48376
" />
<path d="M51678 48545
L51284 48545
" />
<path d="M51678 48770
L51453 48601
" />
<path d="M51284 48770
L51509 48545
" />
<path d="M55284 47718
L55678 47849
L55284 47981
" />
<path d="M55640 48337
L55659 48318
L55678 48262
L55678 48224
L55659 48168
L55621 48131
L55584 48112
L55509 48093
L55453 48093
L55378 48112
L55340 48131
L55303 48168
L55284 48224
L55284 48262
L55303 48318
L55321 48337
" />
<path d="M55640 48731
L55659 48712
L55678 48656
L55678 48618
L55659 48562
L55621 48524
L55584 48506
L55509 48487
L55453 48487
L55378 48506
L55340 48524
L55303 48562
L55284 48618
L55284 48656
L55303 48712
L55321 48731
" />
<path d="M52659 47551
L52678 47608
L52678 47701
L52659 47739
L52640 47758
L52603 47776
L52565 47776
L52528 47758
L52509 47739
L52490 47701
L52471 47626
L52453 47589
L52434 47570
L52396 47551
L52359 47551
L52321 47570
L52303 47589
L52284 47626
L52284 47720
L52303 47776
" />
<path d="M52678 47945
L52284 47945
L52284 48039
L52303 48095
L52340 48133
L52378 48151
L52453 48170
L52509 48170
L52584 48151
L52621 48133
L52659 48095
L52678 48039
L52678 47945
" />
<path d="M52678 48339
L52284 48339
" />
<path d="M52284 48601
L52284 48676
L52303 48714
L52340 48751
L52415 48770
L52546 48770
L52621 48751
L52659 48714
L52678 48676
L52678 48601
L52659 48564
L52621 48526
L52546 48508
L52415 48508
L52340 48526
L52303 48564
L52284 48601
" />
<path d="M50659 47776
L50678 47833
L50678 47926
L50659 47964
L50640 47983
L50603 48001
L50565 48001
L50528 47983
L50509 47964
L50490 47926
L50471 47851
L50453 47814
L50434 47795
L50396 47776
L50359 47776
L50321 47795
L50303 47814
L50284 47851
L50284 47945
L50303 48001
" />
<path d="M50640 48395
L50659 48376
L50678 48320
L50678 48283
L50659 48226
L50621 48189
L50584 48170
L50509 48151
L50453 48151
L50378 48170
L50340 48189
L50303 48226
L50284 48283
L50284 48320
L50303 48376
L50321 48395
" />
<path d="M50659 48545
L50678 48601
L50678 48695
L50659 48732
L50640 48751
L50603 48770
L50565 48770
L50528 48751
L50509 48732
L50490 48695
L50471 48620
L50453 48583
L50434 48564
L50396 48545
L50359 48545
L50321 48564
L50303 48583
L50284 48620
L50284 48714
L50303 48770
" />
</g> 
</svg>
