<?xml version="1.0" standalone="no"?>
 <!DOCTYPE svg PUBLIC "-//W3C//DTD SVG 1.1//EN" 
 "http://www.w3.org/Graphics/SVG/1.1/DTD/svg11.dtd"> 
<svg xmlns="http://www.w3.org/2000/svg" version="1.1" 
    width="29.7002cm" height="21.0007cm" viewBox="0 0 116930 82680 ">
<title>SVG Picture created as A7139-Breakout-F.Cu.svg date 2018/08/09 19:49:00 </title>
  <desc>Picture generated by PCBNEW </desc>
<g style="fill:#000000; fill-opacity:1;stroke:#000000; stroke-opacity:1;
stroke-linecap:round; stroke-linejoin:round; "
 transform="translate(0 0) scale(1 1)">
</g>
<g style="fill:#000000; fill-opacity:0.0; 
stroke:#000000; stroke-width:-0.000393701; stroke-opacity:1; 
stroke-linecap:round; stroke-linejoin:round;">
</g>
<g style="fill:#000000; fill-opacity:0.0; 
stroke:#000000; stroke-width:0; stroke-opacity:1; 
stroke-linecap:round; stroke-linejoin:round;">
</g>
<g style="fill:#000000; fill-opacity:1.0; 
stroke:#000000; stroke-width:0; stroke-opacity:1; 
stroke-linecap:round; stroke-linejoin:round;">
<polyline style="fill-rule:evenodd;"
points="56165,49834
56165,49165
56834,49165
56834,49834
56165,49834
" /> 
</g>
<g style="fill:#000000; fill-opacity:1.0; 
stroke:#000000; stroke-width:669.291; stroke-opacity:1; 
stroke-linecap:round; stroke-linejoin:round;">
</g>
<g style="fill:#000000; fill-opacity:0.0; 
stroke:#000000; stroke-width:669.291; stroke-opacity:1; 
stroke-linecap:round; stroke-linejoin:round;">
<path d="M55500 49500
L55500 49500
" />
<path d="M54500 49500
L54500 49500
" />
<path d="M53500 49500
L53500 49500
" />
<path d="M52500 49500
L52500 49500
" />
<path d="M51500 49500
L51500 49500
" />
<path d="M50500 49500
L50500 49500
" />
</g>
<g style="fill:#000000; fill-opacity:0.0; 
stroke:#000000; stroke-width:0; stroke-opacity:1; 
stroke-linecap:round; stroke-linejoin:round;">
</g>
<g style="fill:#000000; fill-opacity:1.0; 
stroke:#000000; stroke-width:0; stroke-opacity:1; 
stroke-linecap:round; stroke-linejoin:round;">
<polyline style="fill-rule:evenodd;"
points="52775,47322
52775,46535
53051,46535
53051,47322
52775,47322
" /> 
<polyline style="fill-rule:evenodd;"
points="53275,47322
53275,46535
53551,46535
53551,47322
53275,47322
" /> 
<polyline style="fill-rule:evenodd;"
points="53775,47322
53775,46535
54051,46535
54051,47322
53775,47322
" /> 
<polyline style="fill-rule:evenodd;"
points="54275,47322
54275,46535
54551,46535
54551,47322
54275,47322
" /> 
<polyline style="fill-rule:evenodd;"
points="54775,47322
54775,46535
55051,46535
55051,47322
54775,47322
" /> 
<polyline style="fill-rule:evenodd;"
points="55275,47322
55275,46535
55551,46535
55551,47322
55275,47322
" /> 
<polyline style="fill-rule:evenodd;"
points="55775,47322
55775,46535
56051,46535
56051,47322
55775,47322
" /> 
</g>
<g style="fill:#000000; fill-opacity:1.0; 
stroke:#000000; stroke-width:98.4252; stroke-opacity:1; 
stroke-linecap:round; stroke-linejoin:round;">
</g>
<g style="fill:#000000; fill-opacity:0.0; 
stroke:#000000; stroke-width:98.4252; stroke-opacity:1; 
stroke-linecap:round; stroke-linejoin:round;">
<path d="M55413 49413
L55500 49500
" />
<path d="M55413 46929
L55413 49413
" />
<path d="M54913 49086
L54500 49500
" />
<path d="M54913 46929
L54913 49086
" />
<path d="M54413 48586
L53500 49500
" />
<path d="M54413 46929
L54413 48586
" />
<path d="M53913 48086
L53913 46929
" />
<path d="M52500 49500
L53913 48086
" />
<path d="M53413 47586
L51500 49500
" />
<path d="M53413 46929
L53413 47586
" />
<path d="M52913 47086
L52913 46929
" />
<path d="M50500 49500
L52913 47086
" />
</g>
<g style="fill:#000000; fill-opacity:1.0; 
stroke:#000000; stroke-width:100; stroke-opacity:1; 
stroke-linecap:round; stroke-linejoin:round;">
<polyline style="fill-rule:evenodd;"
points="56124,46235
56118,46263
56124,46295
56100,46285
56025,46285
55963,46347
55963,46879
56238,46879
56301,46816
56301,46560
56710,46970
56710,48915
56612,48915
56550,48977
56550,49450
56557,49450
56557,49550
56550,49550
56550,49557
56450,49557
56450,49550
56442,49550
56442,49450
56450,49450
56450,48977
56387,48915
56115,48915
56023,48953
55953,49023
55927,49087
55921,49078
55728,48949
55712,48946
55712,47567
55725,47572
55800,47572
55863,47510
55863,46979
55963,46979
55963,47510
56025,47572
56100,47572
56192,47534
56263,47464
56301,47372
56301,47041
56238,46979
55963,46979
55863,46979
55855,46979
55855,46879
55863,46879
55863,46347
55800,46285
55725,46285
55664,46310
55648,46299
55551,46280
55275,46280
55178,46299
55163,46309
55148,46299
55051,46280
54775,46280
54678,46299
54663,46309
54648,46299
54551,46280
54275,46280
54178,46299
54163,46309
54148,46299
54051,46280
53775,46280
53678,46299
53663,46309
53648,46299
53551,46280
53275,46280
53178,46299
53163,46309
53148,46299
53051,46280
52775,46280
52678,46299
52595,46355
52540,46437
52520,46535
52520,47056
50644,48932
50557,48915
50442,48915
50289,48945
50289,46970
50771,46488
50795,46472
50859,46376
50875,46292
50875,46292
50881,46263
50875,46235
50875,41627
56124,41627
56124,46235
" /> 
</g> 
</svg>
