G04 #@! TF.GenerationSoftware,KiCad,Pcbnew,(5.0.0-3-g5ebb6b6)*
G04 #@! TF.CreationDate,2018-08-09T19:39:11+10:00*
G04 #@! TF.ProjectId,A7139-Breakout,41373133392D427265616B6F75742E6B,rev?*
G04 #@! TF.SameCoordinates,Original*
G04 #@! TF.FileFunction,Legend,Bot*
G04 #@! TF.FilePolarity,Positive*
%FSLAX46Y46*%
G04 Gerber Fmt 4.6, Leading zero omitted, Abs format (unit mm)*
G04 Created by KiCad (PCBNEW (5.0.0-3-g5ebb6b6)) date Thursday, 09 August 2018 at 07:39:11 PM*
%MOMM*%
%LPD*%
G01*
G04 APERTURE LIST*
%ADD10C,0.250000*%
%ADD11C,0.300000*%
G04 APERTURE END LIST*
D10*
X137318571Y-113577714D02*
X137080476Y-114244380D01*
X136842380Y-113577714D01*
X135937619Y-114244380D02*
X136509047Y-114244380D01*
X136223333Y-114244380D02*
X136223333Y-113244380D01*
X136318571Y-113387238D01*
X136413809Y-113482476D01*
X136509047Y-113530095D01*
X135509047Y-114149142D02*
X135461428Y-114196761D01*
X135509047Y-114244380D01*
X135556666Y-114196761D01*
X135509047Y-114149142D01*
X135509047Y-114244380D01*
X134842380Y-113244380D02*
X134747142Y-113244380D01*
X134651904Y-113292000D01*
X134604285Y-113339619D01*
X134556666Y-113434857D01*
X134509047Y-113625333D01*
X134509047Y-113863428D01*
X134556666Y-114053904D01*
X134604285Y-114149142D01*
X134651904Y-114196761D01*
X134747142Y-114244380D01*
X134842380Y-114244380D01*
X134937619Y-114196761D01*
X134985238Y-114149142D01*
X135032857Y-114053904D01*
X135080476Y-113863428D01*
X135080476Y-113625333D01*
X135032857Y-113434857D01*
X134985238Y-113339619D01*
X134937619Y-113292000D01*
X134842380Y-113244380D01*
D11*
X139104285Y-108957000D02*
X138390000Y-108957000D01*
X139247142Y-109385571D02*
X138747142Y-107885571D01*
X138247142Y-109385571D01*
X137890000Y-107885571D02*
X136890000Y-107885571D01*
X137532857Y-109385571D01*
X135532857Y-109385571D02*
X136390000Y-109385571D01*
X135961428Y-109385571D02*
X135961428Y-107885571D01*
X136104285Y-108099857D01*
X136247142Y-108242714D01*
X136390000Y-108314142D01*
X135032857Y-107885571D02*
X134104285Y-107885571D01*
X134604285Y-108457000D01*
X134390000Y-108457000D01*
X134247142Y-108528428D01*
X134175714Y-108599857D01*
X134104285Y-108742714D01*
X134104285Y-109099857D01*
X134175714Y-109242714D01*
X134247142Y-109314142D01*
X134390000Y-109385571D01*
X134818571Y-109385571D01*
X134961428Y-109314142D01*
X135032857Y-109242714D01*
X133390000Y-109385571D02*
X133104285Y-109385571D01*
X132961428Y-109314142D01*
X132890000Y-109242714D01*
X132747142Y-109028428D01*
X132675714Y-108742714D01*
X132675714Y-108171285D01*
X132747142Y-108028428D01*
X132818571Y-107957000D01*
X132961428Y-107885571D01*
X133247142Y-107885571D01*
X133390000Y-107957000D01*
X133461428Y-108028428D01*
X133532857Y-108171285D01*
X133532857Y-108528428D01*
X133461428Y-108671285D01*
X133390000Y-108742714D01*
X133247142Y-108814142D01*
X132961428Y-108814142D01*
X132818571Y-108742714D01*
X132747142Y-108671285D01*
X132675714Y-108528428D01*
X139961428Y-111149857D02*
X139747142Y-111221285D01*
X139675714Y-111292714D01*
X139604285Y-111435571D01*
X139604285Y-111649857D01*
X139675714Y-111792714D01*
X139747142Y-111864142D01*
X139890000Y-111935571D01*
X140461428Y-111935571D01*
X140461428Y-110435571D01*
X139961428Y-110435571D01*
X139818571Y-110507000D01*
X139747142Y-110578428D01*
X139675714Y-110721285D01*
X139675714Y-110864142D01*
X139747142Y-111007000D01*
X139818571Y-111078428D01*
X139961428Y-111149857D01*
X140461428Y-111149857D01*
X138961428Y-111935571D02*
X138961428Y-110935571D01*
X138961428Y-111221285D02*
X138890000Y-111078428D01*
X138818571Y-111007000D01*
X138675714Y-110935571D01*
X138532857Y-110935571D01*
X137461428Y-111864142D02*
X137604285Y-111935571D01*
X137890000Y-111935571D01*
X138032857Y-111864142D01*
X138104285Y-111721285D01*
X138104285Y-111149857D01*
X138032857Y-111007000D01*
X137890000Y-110935571D01*
X137604285Y-110935571D01*
X137461428Y-111007000D01*
X137390000Y-111149857D01*
X137390000Y-111292714D01*
X138104285Y-111435571D01*
X136104285Y-111935571D02*
X136104285Y-111149857D01*
X136175714Y-111007000D01*
X136318571Y-110935571D01*
X136604285Y-110935571D01*
X136747142Y-111007000D01*
X136104285Y-111864142D02*
X136247142Y-111935571D01*
X136604285Y-111935571D01*
X136747142Y-111864142D01*
X136818571Y-111721285D01*
X136818571Y-111578428D01*
X136747142Y-111435571D01*
X136604285Y-111364142D01*
X136247142Y-111364142D01*
X136104285Y-111292714D01*
X135390000Y-111935571D02*
X135390000Y-110435571D01*
X135247142Y-111364142D02*
X134818571Y-111935571D01*
X134818571Y-110935571D02*
X135390000Y-111507000D01*
X133961428Y-111935571D02*
X134104285Y-111864142D01*
X134175714Y-111792714D01*
X134247142Y-111649857D01*
X134247142Y-111221285D01*
X134175714Y-111078428D01*
X134104285Y-111007000D01*
X133961428Y-110935571D01*
X133747142Y-110935571D01*
X133604285Y-111007000D01*
X133532857Y-111078428D01*
X133461428Y-111221285D01*
X133461428Y-111649857D01*
X133532857Y-111792714D01*
X133604285Y-111864142D01*
X133747142Y-111935571D01*
X133961428Y-111935571D01*
X132175714Y-110935571D02*
X132175714Y-111935571D01*
X132818571Y-110935571D02*
X132818571Y-111721285D01*
X132747142Y-111864142D01*
X132604285Y-111935571D01*
X132390000Y-111935571D01*
X132247142Y-111864142D01*
X132175714Y-111792714D01*
X131675714Y-110935571D02*
X131104285Y-110935571D01*
X131461428Y-110435571D02*
X131461428Y-111721285D01*
X131390000Y-111864142D01*
X131247142Y-111935571D01*
X131104285Y-111935571D01*
D10*
X135390000Y-121353214D02*
X135342380Y-121257976D01*
X135342380Y-121115119D01*
X135390000Y-120972261D01*
X135485238Y-120877023D01*
X135580476Y-120829404D01*
X135770952Y-120781785D01*
X135913809Y-120781785D01*
X136104285Y-120829404D01*
X136199523Y-120877023D01*
X136294761Y-120972261D01*
X136342380Y-121115119D01*
X136342380Y-121210357D01*
X136294761Y-121353214D01*
X136247142Y-121400833D01*
X135913809Y-121400833D01*
X135913809Y-121210357D01*
X136342380Y-121829404D02*
X135342380Y-121829404D01*
X135342380Y-122496071D02*
X135342380Y-122686547D01*
X135390000Y-122781785D01*
X135485238Y-122877023D01*
X135675714Y-122924642D01*
X136009047Y-122924642D01*
X136199523Y-122877023D01*
X136294761Y-122781785D01*
X136342380Y-122686547D01*
X136342380Y-122496071D01*
X136294761Y-122400833D01*
X136199523Y-122305595D01*
X136009047Y-122257976D01*
X135675714Y-122257976D01*
X135485238Y-122305595D01*
X135390000Y-122400833D01*
X135342380Y-122496071D01*
X136342380Y-123877023D02*
X136342380Y-123305595D01*
X136342380Y-123591309D02*
X135342380Y-123591309D01*
X135485238Y-123496071D01*
X135580476Y-123400833D01*
X135628095Y-123305595D01*
X137930000Y-121353214D02*
X137882380Y-121257976D01*
X137882380Y-121115119D01*
X137930000Y-120972261D01*
X138025238Y-120877023D01*
X138120476Y-120829404D01*
X138310952Y-120781785D01*
X138453809Y-120781785D01*
X138644285Y-120829404D01*
X138739523Y-120877023D01*
X138834761Y-120972261D01*
X138882380Y-121115119D01*
X138882380Y-121210357D01*
X138834761Y-121353214D01*
X138787142Y-121400833D01*
X138453809Y-121400833D01*
X138453809Y-121210357D01*
X138882380Y-121829404D02*
X137882380Y-121829404D01*
X137882380Y-122496071D02*
X137882380Y-122686547D01*
X137930000Y-122781785D01*
X138025238Y-122877023D01*
X138215714Y-122924642D01*
X138549047Y-122924642D01*
X138739523Y-122877023D01*
X138834761Y-122781785D01*
X138882380Y-122686547D01*
X138882380Y-122496071D01*
X138834761Y-122400833D01*
X138739523Y-122305595D01*
X138549047Y-122257976D01*
X138215714Y-122257976D01*
X138025238Y-122305595D01*
X137930000Y-122400833D01*
X137882380Y-122496071D01*
X137977619Y-123305595D02*
X137930000Y-123353214D01*
X137882380Y-123448452D01*
X137882380Y-123686547D01*
X137930000Y-123781785D01*
X137977619Y-123829404D01*
X138072857Y-123877023D01*
X138168095Y-123877023D01*
X138310952Y-123829404D01*
X138882380Y-123257976D01*
X138882380Y-123877023D01*
X143010000Y-121781785D02*
X142962380Y-121686547D01*
X142962380Y-121543690D01*
X143010000Y-121400833D01*
X143105238Y-121305595D01*
X143200476Y-121257976D01*
X143390952Y-121210357D01*
X143533809Y-121210357D01*
X143724285Y-121257976D01*
X143819523Y-121305595D01*
X143914761Y-121400833D01*
X143962380Y-121543690D01*
X143962380Y-121638928D01*
X143914761Y-121781785D01*
X143867142Y-121829404D01*
X143533809Y-121829404D01*
X143533809Y-121638928D01*
X143962380Y-122257976D02*
X142962380Y-122257976D01*
X143962380Y-122829404D01*
X142962380Y-122829404D01*
X143962380Y-123305595D02*
X142962380Y-123305595D01*
X142962380Y-123543690D01*
X143010000Y-123686547D01*
X143105238Y-123781785D01*
X143200476Y-123829404D01*
X143390952Y-123877023D01*
X143533809Y-123877023D01*
X143724285Y-123829404D01*
X143819523Y-123781785D01*
X143914761Y-123686547D01*
X143962380Y-123543690D01*
X143962380Y-123305595D01*
X131214761Y-121305595D02*
X131262380Y-121448452D01*
X131262380Y-121686547D01*
X131214761Y-121781785D01*
X131167142Y-121829404D01*
X131071904Y-121877023D01*
X130976666Y-121877023D01*
X130881428Y-121829404D01*
X130833809Y-121781785D01*
X130786190Y-121686547D01*
X130738571Y-121496071D01*
X130690952Y-121400833D01*
X130643333Y-121353214D01*
X130548095Y-121305595D01*
X130452857Y-121305595D01*
X130357619Y-121353214D01*
X130310000Y-121400833D01*
X130262380Y-121496071D01*
X130262380Y-121734166D01*
X130310000Y-121877023D01*
X131167142Y-122877023D02*
X131214761Y-122829404D01*
X131262380Y-122686547D01*
X131262380Y-122591309D01*
X131214761Y-122448452D01*
X131119523Y-122353214D01*
X131024285Y-122305595D01*
X130833809Y-122257976D01*
X130690952Y-122257976D01*
X130500476Y-122305595D01*
X130405238Y-122353214D01*
X130310000Y-122448452D01*
X130262380Y-122591309D01*
X130262380Y-122686547D01*
X130310000Y-122829404D01*
X130357619Y-122877023D01*
X131262380Y-123305595D02*
X130262380Y-123305595D01*
X131262380Y-123877023D02*
X130690952Y-123448452D01*
X130262380Y-123877023D02*
X130833809Y-123305595D01*
X140422380Y-121205595D02*
X141422380Y-121538928D01*
X140422380Y-121872261D01*
X141327142Y-122777023D02*
X141374761Y-122729404D01*
X141422380Y-122586547D01*
X141422380Y-122491309D01*
X141374761Y-122348452D01*
X141279523Y-122253214D01*
X141184285Y-122205595D01*
X140993809Y-122157976D01*
X140850952Y-122157976D01*
X140660476Y-122205595D01*
X140565238Y-122253214D01*
X140470000Y-122348452D01*
X140422380Y-122491309D01*
X140422380Y-122586547D01*
X140470000Y-122729404D01*
X140517619Y-122777023D01*
X141327142Y-123777023D02*
X141374761Y-123729404D01*
X141422380Y-123586547D01*
X141422380Y-123491309D01*
X141374761Y-123348452D01*
X141279523Y-123253214D01*
X141184285Y-123205595D01*
X140993809Y-123157976D01*
X140850952Y-123157976D01*
X140660476Y-123205595D01*
X140565238Y-123253214D01*
X140470000Y-123348452D01*
X140422380Y-123491309D01*
X140422380Y-123586547D01*
X140470000Y-123729404D01*
X140517619Y-123777023D01*
X133754761Y-120781785D02*
X133802380Y-120924642D01*
X133802380Y-121162738D01*
X133754761Y-121257976D01*
X133707142Y-121305595D01*
X133611904Y-121353214D01*
X133516666Y-121353214D01*
X133421428Y-121305595D01*
X133373809Y-121257976D01*
X133326190Y-121162738D01*
X133278571Y-120972261D01*
X133230952Y-120877023D01*
X133183333Y-120829404D01*
X133088095Y-120781785D01*
X132992857Y-120781785D01*
X132897619Y-120829404D01*
X132850000Y-120877023D01*
X132802380Y-120972261D01*
X132802380Y-121210357D01*
X132850000Y-121353214D01*
X133802380Y-121781785D02*
X132802380Y-121781785D01*
X132802380Y-122019880D01*
X132850000Y-122162738D01*
X132945238Y-122257976D01*
X133040476Y-122305595D01*
X133230952Y-122353214D01*
X133373809Y-122353214D01*
X133564285Y-122305595D01*
X133659523Y-122257976D01*
X133754761Y-122162738D01*
X133802380Y-122019880D01*
X133802380Y-121781785D01*
X133802380Y-122781785D02*
X132802380Y-122781785D01*
X132802380Y-123448452D02*
X132802380Y-123638928D01*
X132850000Y-123734166D01*
X132945238Y-123829404D01*
X133135714Y-123877023D01*
X133469047Y-123877023D01*
X133659523Y-123829404D01*
X133754761Y-123734166D01*
X133802380Y-123638928D01*
X133802380Y-123448452D01*
X133754761Y-123353214D01*
X133659523Y-123257976D01*
X133469047Y-123210357D01*
X133135714Y-123210357D01*
X132945238Y-123257976D01*
X132850000Y-123353214D01*
X132802380Y-123448452D01*
X128674761Y-121353214D02*
X128722380Y-121496071D01*
X128722380Y-121734166D01*
X128674761Y-121829404D01*
X128627142Y-121877023D01*
X128531904Y-121924642D01*
X128436666Y-121924642D01*
X128341428Y-121877023D01*
X128293809Y-121829404D01*
X128246190Y-121734166D01*
X128198571Y-121543690D01*
X128150952Y-121448452D01*
X128103333Y-121400833D01*
X128008095Y-121353214D01*
X127912857Y-121353214D01*
X127817619Y-121400833D01*
X127770000Y-121448452D01*
X127722380Y-121543690D01*
X127722380Y-121781785D01*
X127770000Y-121924642D01*
X128627142Y-122924642D02*
X128674761Y-122877023D01*
X128722380Y-122734166D01*
X128722380Y-122638928D01*
X128674761Y-122496071D01*
X128579523Y-122400833D01*
X128484285Y-122353214D01*
X128293809Y-122305595D01*
X128150952Y-122305595D01*
X127960476Y-122353214D01*
X127865238Y-122400833D01*
X127770000Y-122496071D01*
X127722380Y-122638928D01*
X127722380Y-122734166D01*
X127770000Y-122877023D01*
X127817619Y-122924642D01*
X128674761Y-123305595D02*
X128722380Y-123448452D01*
X128722380Y-123686547D01*
X128674761Y-123781785D01*
X128627142Y-123829404D01*
X128531904Y-123877023D01*
X128436666Y-123877023D01*
X128341428Y-123829404D01*
X128293809Y-123781785D01*
X128246190Y-123686547D01*
X128198571Y-123496071D01*
X128150952Y-123400833D01*
X128103333Y-123353214D01*
X128008095Y-123305595D01*
X127912857Y-123305595D01*
X127817619Y-123353214D01*
X127770000Y-123400833D01*
X127722380Y-123496071D01*
X127722380Y-123734166D01*
X127770000Y-123877023D01*
M02*
