G04 #@! TF.GenerationSoftware,KiCad,Pcbnew,(5.0.0-3-g5ebb6b6)*
G04 #@! TF.CreationDate,2018-08-09T19:39:11+10:00*
G04 #@! TF.ProjectId,A7139-Breakout,41373133392D427265616B6F75742E6B,rev?*
G04 #@! TF.SameCoordinates,Original*
G04 #@! TF.FileFunction,Legend,Top*
G04 #@! TF.FilePolarity,Positive*
%FSLAX46Y46*%
G04 Gerber Fmt 4.6, Leading zero omitted, Abs format (unit mm)*
G04 Created by KiCad (PCBNEW (5.0.0-3-g5ebb6b6)) date Thursday, 09 August 2018 at 07:39:11 PM*
%MOMM*%
%LPD*%
G01*
G04 APERTURE LIST*
%ADD10C,0.250000*%
G04 APERTURE END LIST*
D10*
X128674761Y-123877023D02*
X128722380Y-123734166D01*
X128722380Y-123496071D01*
X128674761Y-123400833D01*
X128627142Y-123353214D01*
X128531904Y-123305595D01*
X128436666Y-123305595D01*
X128341428Y-123353214D01*
X128293809Y-123400833D01*
X128246190Y-123496071D01*
X128198571Y-123686547D01*
X128150952Y-123781785D01*
X128103333Y-123829404D01*
X128008095Y-123877023D01*
X127912857Y-123877023D01*
X127817619Y-123829404D01*
X127770000Y-123781785D01*
X127722380Y-123686547D01*
X127722380Y-123448452D01*
X127770000Y-123305595D01*
X128627142Y-122305595D02*
X128674761Y-122353214D01*
X128722380Y-122496071D01*
X128722380Y-122591309D01*
X128674761Y-122734166D01*
X128579523Y-122829404D01*
X128484285Y-122877023D01*
X128293809Y-122924642D01*
X128150952Y-122924642D01*
X127960476Y-122877023D01*
X127865238Y-122829404D01*
X127770000Y-122734166D01*
X127722380Y-122591309D01*
X127722380Y-122496071D01*
X127770000Y-122353214D01*
X127817619Y-122305595D01*
X128674761Y-121924642D02*
X128722380Y-121781785D01*
X128722380Y-121543690D01*
X128674761Y-121448452D01*
X128627142Y-121400833D01*
X128531904Y-121353214D01*
X128436666Y-121353214D01*
X128341428Y-121400833D01*
X128293809Y-121448452D01*
X128246190Y-121543690D01*
X128198571Y-121734166D01*
X128150952Y-121829404D01*
X128103333Y-121877023D01*
X128008095Y-121924642D01*
X127912857Y-121924642D01*
X127817619Y-121877023D01*
X127770000Y-121829404D01*
X127722380Y-121734166D01*
X127722380Y-121496071D01*
X127770000Y-121353214D01*
X131214761Y-123877023D02*
X131262380Y-123734166D01*
X131262380Y-123496071D01*
X131214761Y-123400833D01*
X131167142Y-123353214D01*
X131071904Y-123305595D01*
X130976666Y-123305595D01*
X130881428Y-123353214D01*
X130833809Y-123400833D01*
X130786190Y-123496071D01*
X130738571Y-123686547D01*
X130690952Y-123781785D01*
X130643333Y-123829404D01*
X130548095Y-123877023D01*
X130452857Y-123877023D01*
X130357619Y-123829404D01*
X130310000Y-123781785D01*
X130262380Y-123686547D01*
X130262380Y-123448452D01*
X130310000Y-123305595D01*
X131167142Y-122305595D02*
X131214761Y-122353214D01*
X131262380Y-122496071D01*
X131262380Y-122591309D01*
X131214761Y-122734166D01*
X131119523Y-122829404D01*
X131024285Y-122877023D01*
X130833809Y-122924642D01*
X130690952Y-122924642D01*
X130500476Y-122877023D01*
X130405238Y-122829404D01*
X130310000Y-122734166D01*
X130262380Y-122591309D01*
X130262380Y-122496071D01*
X130310000Y-122353214D01*
X130357619Y-122305595D01*
X131262380Y-121877023D02*
X130262380Y-121877023D01*
X131262380Y-121305595D02*
X130690952Y-121734166D01*
X130262380Y-121305595D02*
X130833809Y-121877023D01*
X133754761Y-123877023D02*
X133802380Y-123734166D01*
X133802380Y-123496071D01*
X133754761Y-123400833D01*
X133707142Y-123353214D01*
X133611904Y-123305595D01*
X133516666Y-123305595D01*
X133421428Y-123353214D01*
X133373809Y-123400833D01*
X133326190Y-123496071D01*
X133278571Y-123686547D01*
X133230952Y-123781785D01*
X133183333Y-123829404D01*
X133088095Y-123877023D01*
X132992857Y-123877023D01*
X132897619Y-123829404D01*
X132850000Y-123781785D01*
X132802380Y-123686547D01*
X132802380Y-123448452D01*
X132850000Y-123305595D01*
X133802380Y-122877023D02*
X132802380Y-122877023D01*
X132802380Y-122638928D01*
X132850000Y-122496071D01*
X132945238Y-122400833D01*
X133040476Y-122353214D01*
X133230952Y-122305595D01*
X133373809Y-122305595D01*
X133564285Y-122353214D01*
X133659523Y-122400833D01*
X133754761Y-122496071D01*
X133802380Y-122638928D01*
X133802380Y-122877023D01*
X133802380Y-121877023D02*
X132802380Y-121877023D01*
X132802380Y-121210357D02*
X132802380Y-121019880D01*
X132850000Y-120924642D01*
X132945238Y-120829404D01*
X133135714Y-120781785D01*
X133469047Y-120781785D01*
X133659523Y-120829404D01*
X133754761Y-120924642D01*
X133802380Y-121019880D01*
X133802380Y-121210357D01*
X133754761Y-121305595D01*
X133659523Y-121400833D01*
X133469047Y-121448452D01*
X133135714Y-121448452D01*
X132945238Y-121400833D01*
X132850000Y-121305595D01*
X132802380Y-121210357D01*
X135390000Y-123305595D02*
X135342380Y-123400833D01*
X135342380Y-123543690D01*
X135390000Y-123686547D01*
X135485238Y-123781785D01*
X135580476Y-123829404D01*
X135770952Y-123877023D01*
X135913809Y-123877023D01*
X136104285Y-123829404D01*
X136199523Y-123781785D01*
X136294761Y-123686547D01*
X136342380Y-123543690D01*
X136342380Y-123448452D01*
X136294761Y-123305595D01*
X136247142Y-123257976D01*
X135913809Y-123257976D01*
X135913809Y-123448452D01*
X136342380Y-122829404D02*
X135342380Y-122829404D01*
X135342380Y-122162738D02*
X135342380Y-121972261D01*
X135390000Y-121877023D01*
X135485238Y-121781785D01*
X135675714Y-121734166D01*
X136009047Y-121734166D01*
X136199523Y-121781785D01*
X136294761Y-121877023D01*
X136342380Y-121972261D01*
X136342380Y-122162738D01*
X136294761Y-122257976D01*
X136199523Y-122353214D01*
X136009047Y-122400833D01*
X135675714Y-122400833D01*
X135485238Y-122353214D01*
X135390000Y-122257976D01*
X135342380Y-122162738D01*
X136342380Y-120781785D02*
X136342380Y-121353214D01*
X136342380Y-121067500D02*
X135342380Y-121067500D01*
X135485238Y-121162738D01*
X135580476Y-121257976D01*
X135628095Y-121353214D01*
X137930000Y-123305595D02*
X137882380Y-123400833D01*
X137882380Y-123543690D01*
X137930000Y-123686547D01*
X138025238Y-123781785D01*
X138120476Y-123829404D01*
X138310952Y-123877023D01*
X138453809Y-123877023D01*
X138644285Y-123829404D01*
X138739523Y-123781785D01*
X138834761Y-123686547D01*
X138882380Y-123543690D01*
X138882380Y-123448452D01*
X138834761Y-123305595D01*
X138787142Y-123257976D01*
X138453809Y-123257976D01*
X138453809Y-123448452D01*
X138882380Y-122829404D02*
X137882380Y-122829404D01*
X137882380Y-122162738D02*
X137882380Y-121972261D01*
X137930000Y-121877023D01*
X138025238Y-121781785D01*
X138215714Y-121734166D01*
X138549047Y-121734166D01*
X138739523Y-121781785D01*
X138834761Y-121877023D01*
X138882380Y-121972261D01*
X138882380Y-122162738D01*
X138834761Y-122257976D01*
X138739523Y-122353214D01*
X138549047Y-122400833D01*
X138215714Y-122400833D01*
X138025238Y-122353214D01*
X137930000Y-122257976D01*
X137882380Y-122162738D01*
X137977619Y-121353214D02*
X137930000Y-121305595D01*
X137882380Y-121210357D01*
X137882380Y-120972261D01*
X137930000Y-120877023D01*
X137977619Y-120829404D01*
X138072857Y-120781785D01*
X138168095Y-120781785D01*
X138310952Y-120829404D01*
X138882380Y-121400833D01*
X138882380Y-120781785D01*
X140422380Y-123772261D02*
X141422380Y-123438928D01*
X140422380Y-123105595D01*
X141327142Y-122200833D02*
X141374761Y-122248452D01*
X141422380Y-122391309D01*
X141422380Y-122486547D01*
X141374761Y-122629404D01*
X141279523Y-122724642D01*
X141184285Y-122772261D01*
X140993809Y-122819880D01*
X140850952Y-122819880D01*
X140660476Y-122772261D01*
X140565238Y-122724642D01*
X140470000Y-122629404D01*
X140422380Y-122486547D01*
X140422380Y-122391309D01*
X140470000Y-122248452D01*
X140517619Y-122200833D01*
X141327142Y-121200833D02*
X141374761Y-121248452D01*
X141422380Y-121391309D01*
X141422380Y-121486547D01*
X141374761Y-121629404D01*
X141279523Y-121724642D01*
X141184285Y-121772261D01*
X140993809Y-121819880D01*
X140850952Y-121819880D01*
X140660476Y-121772261D01*
X140565238Y-121724642D01*
X140470000Y-121629404D01*
X140422380Y-121486547D01*
X140422380Y-121391309D01*
X140470000Y-121248452D01*
X140517619Y-121200833D01*
X143010000Y-123305595D02*
X142962380Y-123400833D01*
X142962380Y-123543690D01*
X143010000Y-123686547D01*
X143105238Y-123781785D01*
X143200476Y-123829404D01*
X143390952Y-123877023D01*
X143533809Y-123877023D01*
X143724285Y-123829404D01*
X143819523Y-123781785D01*
X143914761Y-123686547D01*
X143962380Y-123543690D01*
X143962380Y-123448452D01*
X143914761Y-123305595D01*
X143867142Y-123257976D01*
X143533809Y-123257976D01*
X143533809Y-123448452D01*
X143962380Y-122829404D02*
X142962380Y-122829404D01*
X143962380Y-122257976D01*
X142962380Y-122257976D01*
X143962380Y-121781785D02*
X142962380Y-121781785D01*
X142962380Y-121543690D01*
X143010000Y-121400833D01*
X143105238Y-121305595D01*
X143200476Y-121257976D01*
X143390952Y-121210357D01*
X143533809Y-121210357D01*
X143724285Y-121257976D01*
X143819523Y-121305595D01*
X143914761Y-121400833D01*
X143962380Y-121543690D01*
X143962380Y-121781785D01*
M02*
